<?xml version="1.0" encoding="UTF-8"?>
<svg id="Ebene_1" xmlns="http://www.w3.org/2000/svg" version="1.1" viewBox="0 0 1000 600">
  <!-- Generator: Adobe Illustrator 29.7.0, SVG Export Plug-In . SVG Version: 2.1.1 Build 138)  -->
  <defs>
    <style>
      .st0 {
        fill: #fff;
      }
    </style>
  </defs>
  <g>
    <path class="st0" d="M-551.61,206.42c4.86,3.18,13.11,13.46,18.03,18.09,26.62,25.04,88.41,81.64,90.37,84.04.74.91-29.93,16.88-30.27,16.61-35.89-29.15-61.05-68.92-87.74-106.28-.06-.08-.1-.17-.13-.27l-7.73-23.56c-.31-.94.78-1.71,1.56-1.1,4.98,3.93,15.45,12.17,15.92,12.47Z"/>
    <path class="st0" d="M-252.24,224.57c.33-.27.58-.48.74-.66.2-.21.26-.35.19-.41-.08-.07-.32-.05-.72.06-94.96,42.14-186.68,92.92-279.68,139.79-14.15,7.07-27.9,14.9-41.86,22.43-6.74,3.56-13.09,6.73-20.4,9.59-7.5,2.86-16.75,5.85-19.21-3.22-1.65-6.66-.38-15.19,3.08-20.94,2.8-4.74,7.21-8.23,11.74-11.31,12.6-8.51,26.7-14.9,39.44-23.11,6.38-4.09,14.12-9.69,19.63-13.91,2.04-1.72,4.61-3.41,3.78-4.33-.83-.59-5.22.36-11.03,1.41-16.39,2.98-41.77,7.72-56.5,10.32-6.61,1.16-9.92-.18-10.12-8.33,1.16-70.96,15.77-141.99,34.15-210.27,1.49-6.25,16.03-48.88,3.64-22.9-7.14,15.42-15.46,30.38-22.82,45.72-24.06,50.17-46.17,101.8-82.5,144.44-4.68,5.67-9.47,11.24-14.35,16.74-15.41,17.33-31.66,33.95-48.02,50.37-5.68,5.68-12.18,10.55-19.72,13.42-14.9,5.21-30.55,8.02-45.69,12.54-13.64,3.82-112.54,38.15-112.46,38.41.04.17.43.31,1.08.41,2.37.29,90.34-9.83,110.12-11.82,6.01.83-4.16,10.12-6.36,12.44-33.07,30.91-68.45,59.71-103.56,88.28-1.97,1.69-2.77,2.58-1.82,2.32,4.9-1.98,10.96-5.84,16.47-8.84,37.47-21.84,74.48-44.24,110.52-68.32,12.29-8.41,24.87-18.32,37.28-25.91,13.79-9.07,29.74-10.88,45.86-8.6,15.8,2,28.93,7.71,38.12,19.96,6.4,8.41,10.29,18.98,10.09,29.47-.03,4.36-.42,11.13,2.02,12.62,3.83,2.45,9.01-.17,13.42-1.42,54.65-18.93,112.11-28.63,169.95-30.91,60.05-2.71,120.81,2.47,178.72,20.15,7.54,2.04,17.46,5.88,24.21,7.12,1.43.08.95-.83-1.46-2.83-5.46-4.34-16.08-11.87-22.94-16.97-26.4-19.95-50.51-39.61-76.38-60.53-6.12-5.02-12.42-10.26-18.24-15.52-8.2-7.27-16.86-15.6-6.2-25.19,10.43-8.67,22.87-15.82,34.46-23.18,17.57-10.72,35.41-21.38,52.59-32.16,8.17-5.07,16.41-10.07,24.6-15.09,2.91-1.83,16.5-14.07,20.25-17.29.36-.31,11.1-10.36,15.9-14.04ZM-650.57,378.39c-3.04-1.09-7.97-5.83-11.95-8.31-6.87-4.47-14.43-7.78-22.27-10.09-3.7-1.1-7.59-1.99-11.44-2.71-1.44-.46-7.23-.72-6.52-2.48,8.78-9.93,50.43-53.18,57.63-60.99.33-.34.59-.6.78-.75.32-.26.46-.24.52.08-1.02,20.01-2.94,47.28-4.13,67.7-.47,7.34-.8,13.15-1.01,15.96-.08.92-.37,1.97-1.53,1.62l-.08-.02ZM-387.06,402.33c-1.39.81-5.95.61-8.37.29-29.97-4.01-59.91-9.04-90.22-9.84-8.02-.46-17.27-1.15-24.94-2.39-2.15-.38-3.23-.76-2.85-1.35,2.72-2.2,5.96-3.43,11.05-6.46,14.69-8.21,31.63-17.69,46.52-26.02,1.93-1.08,3.68-2.06,5.5-3.08,3.1-1.71,3.1-1.87,5.46.05,5.39,4.38,10.59,8.62,16.14,13.14,10.75,8.75,23.96,19.51,34.22,27.86,2.11,1.73,5.16,4.18,6.63,5.42,1.19,1.03,1.66,1.86.9,2.34l-.06.04Z"/>
  </g>
  <path d="M-249.73-27.4c-12.87,11.42-31.57-3.98-22.48-18.24,11.88-18.63,38.91,3.66,22.48,18.24Z"/>
  <path d="M-505.59-98.78c-2.86-1.42-6.83-3.72-9.54-5.44-4.4-2.78-15.21-12.59-19.16-13.42-6.5-1.37-11.4,3.03-9.64,9.64,1.11,4.17,8.27,8.62,11.12,11.68,3.37,3.61,13.84,15.54,14.03,19.91.3,6.69-7.5,8.01-12.4,9.14-41.11,9.49-38.1-7.35-45.94-38.83-6.7-26.88-15.93-52.57-19.16-80.53-1.81-15.69-.52-16.22,5.58-29.42,13.28-28.71-31.11-36.91-31.13-8.93,0,7.44,3.75,14.84,5.58,21.83,5.45,20.88,8.14,44.56,10.09,66.14.81,8.88,2.24,20.71-.03,29.28-3.59,13.53-25.03,12.08-36.15,11.47-12.3-.68-21.44-1.48-26.67-13.73-10.98-25.69-16.16-56.19-24.78-82.73-2.93-9.02-8.18-16.02-18.85-14.3-10.8,1.75-16.45,23.22-20.66,32.12-11.69,24.72-26.16,50.56-41.46,73.21-7.97,11.8-12.01,19.61-26.23,24.59-4.97,1.74-10.3,2.57-15.3,4.25-19.36,6.47-40.37,16.4-60.66,18.83-4.44.53-9.85.19-14.25.74-17.41,2.18-17.21,26.82,1.95,24.75,5.71-.62,20.69-10.22,27.25-13.14,6.58-2.94,13.91-5.71,20.79-7.88,7.58-2.38,27.96-10.35,23.12,5.53-1.7,5.58-23.64,36.15-28.51,41.86-6.66,7.81-19.72,14.2-14.25,26.66.41.94,2.05,3.42,2.76,4.08,2.78,2.58,6.82,3.73,10.55,3.51,13.63-.81,13.9-16.31,19.33-25.63,14.37-24.69,36.2-47.14,52.32-70.83,15.4-16.44,71.83-10.96,90.26-.98,15.5,8.39,15.93,28.75,21.18,43.33,8.48,23.54,31.24,8.49,46.4,2.77,17.12-6.46,34.72-10.51,52.3-15.47,13.64-3.84,26.08-8.55,40.27-11.21,17.34-3.25,48.44-.62,50.96-23.97,2.19-20.27-17.66-22.24-31.07-28.89ZM-703.57-95.64c-6.9.62-20.58,1.18-27.07-.28-11.16-2.51-11.42-8.71-6.82-17.97,2.08-4.18,14.08-24.02,16.95-26.05.69-.49,1.22-.97,2.1-1.17,3.53-.8,5.17.34,7.24,2.91,3.49,4.33,13.11,24.65,15.21,30.4,2.85,7.8.64,11.41-7.62,12.16ZM-600.95-58.84c-4.97,6.55-24.17,13.81-32.22,13.37-9.58-.53-14.5-9.69-18.51-17.34-5.16-9.85-10.42-19.24,5-20.9,8.28-.89,38.1-1.05,44.6,2.58,7.56,4.23,5.67,16.32,1.13,22.3Z"/>
  <path d="M-293.79-38.6c-7.25-7.34-24.87-7.5-35.08-10.53-17.76-5.27-36.47-16.91-49.65-29.84-7.92-7.76-16.59-16.99-11.2-28.81,9.97-13.4,18.75-29,28.91-42.11,6.57-8.49,9.38-6.54,16.66-11.36,6.39-4.22,7.48-14.93,1.9-20.13-6.13-5.72-15.98-3.89-20.62,2.71-1.36,1.94-1.95,4.64-3.14,6.63-3.06,5.1-6.93,8.39-10.53,12.93-9.24,11.63-20.91,29.57-30.95,39.42-9.44,9.26-17.01,2.94-25.68-3.02-14.27-9.81-31.52-24.23-43.09-37.05-8.94-9.91-15.79-24.85-31.61-23.82-11.28.73-18.51,12.28-15.12,22.98,3.15,9.92,20.31,16.61,28.83,21.99,11.09,7,44.7,30.73,49.85,41.37,2.92,6.03.97,11.8-2.64,16.94-7.36,10.5-20.11,24.56-28.97,34.23-7.11,7.77-13.04,13.97-23.5,16.9-11.02,3.09-27.57.84-32.88,13.38-5.97,14.08,5.54,27.16,20.22,23.48,4.69-1.18,6.56-3.3,10.41-5.23,51.49-25.8,116.18-41.66,171.82-18.67,10.41,4.3,20.26,12.71,31.92,6.74,10.21-5.23,12.22-20.95,4.15-29.13ZM-384.13-38.32c-19.69,2.93-41.71.94-61.63,3.83-17.44-3.71-1.61-16.69,4.46-22.89,4.33-4.42,9.19-9.9,13.9-13.79,4.33-3.58,7.99-6.05,13.84-4.7,7.03,1.62,30.09,18.74,34.66,24.64,5.11,6.6,3.04,11.67-5.23,12.91Z"/>
  <path class="st0" d="M-288.87,742.43c22.84-3.49,22.81,32.6-.63,28.88-16.02-2.54-15.27-26.45.63-28.88Z"/>
  <path class="st0" d="M-702,854.78c1.98,2.41.65,6.25-2.32,7.15-3.67,1.12-7.58.05-10.82-1.63l1.58-2.37c3.18,2.04,7.19,3.9,9.8.09.6-3.38-9.94-1.55-10.76-6.31-1.12-6.49,8.11-6.98,12.06-4.4l.34,1.59-1.28,1.11c-2.41-1.98-7.05-3.1-8.61.47,0,2.98,7.95,1.81,10,4.31Z"/>
  <path class="st0" d="M-621.22,846.35v11.11c0,1.29,2.42,2.58,3.66,2.74,8.19,1.03,3.73-13.01,4.58-13.85h3.18v11.74c0,3.66-7.64,4.86-10.63,3.64-.61-.25-3.33-2.79-3.33-3.01v-12.37h2.54Z"/>
  <path class="st0" d="M-655.49,846.35v2.54s-5.71,0-5.71,0v13.33h-3.17v-13.33l-4.66-.1c-1.2-.42-1.15-1.29-1.05-2.44h14.6Z"/>
  <path class="st0" d="M-442.9,855.87v-2.53c5.3.01,10.92.66,16.19.69,2.55.01,5.56-.78,8.23-.74,1.56.02,8.25-.02,5.09,2.59h-29.51Z"/>
  <path class="st0" d="M-783.67,855.87v-2.53c4.5,1.07,8.62.15,13,.15,3.54,0,7.73.57,11.42.46,1.98-.06,4.42-1.71,6.04.35l-.95,1.58h-29.51Z"/>
  <rect class="st0" x="-530.48" y="846.35" width="3.17" height="15.86"/>
  <path class="st0" d="M-503.75,707.62c-7.09-3.68-18.64-13.88-24.21-15.77-7.41-2.51-12.14,5.21-7.59,11.4,5.14,7,30.15,24.6,15.56,33.34-4,2.39-15.56,4.85-20.3,5.08-24.57,1.18-23.3-24.45-27.43-41.79-5.85-24.58-20.82-67.13-18.59-91.17,1.15-12.34,13.3-19.76,7.32-32.72-5.58-12.08-25.44-11.67-29.84,1.32-3.51,10.38,1.93,19.37,4.56,29.04,5.54,20.32,8.61,45.98,10.33,67.09,1.2,14.82,2.67,31.96-15.61,35.15-8.75,1.53-33.34,1.17-41.3-2.35-8.36-3.7-13.09-22.97-16.07-31.52-2.69-7.71-5.34-15.53-7.77-23.32-3.45-11.06-6.71-29.26-11.33-38.8-3.73-7.68-13.12-12.23-20.82-7.02-7.83,5.3-11.96,22.31-15.8,31.16-10.52,24.25-30.24,56.25-47.09,76.66-13.37,16.19-22.51,14.45-41.08,19.84-21.2,6.15-40.68,15.94-63.3,17.93-5.99.53-10.78-1.12-16.61,1.8-12.11,6.07-8.65,23.37,5.2,23,7.96-.21,21.51-8.97,29.51-12.4,7.59-3.26,16.69-6.73,24.6-9.03,4.72-1.37,18.02-5.7,21.51-1.88,4.17,4.56-2.33,12.95-4.99,17.13-5.88,9.25-16.34,26.14-23.38,33.73-4.08,4.41-11.87,8.08-13.51,14.41-3.96,15.28,13.64,23.6,23.66,12.87,4.43-4.74,4.8-11.01,7.52-16.59,3.33-6.84,10.46-15.97,15.08-22.36,11.04-15.26,25.86-36.33,38.35-49.85,15.61-16.89,56.64-14.28,77.05-8.55,21.81,6.12,26.14,13.31,32.4,34.23,3.05,10.17,3.75,25.84,18.34,25.95,11.12.08,35.32-13.17,47.18-17.54,25.11-9.24,51.8-14.65,78.09-19.63,14.35-2.72,36.32-2.07,39.31-20.98,3.07-19.43-16.07-21.15-28.96-27.85ZM-690.51,709.48c-6.33,2.21-25.62,2.5-31.96.47-1.33-.43-4.2-1.85-5.14-2.79-3.93-3.9-1.78-9.89.3-14.18,2.64-5.44,11.55-20.32,15.36-24.62,3.31-3.73,6.34-4.09,9.83-.34,3.47,3.72,12.84,23.83,15.02,29.4,2.05,5.27,3.09,9.78-3.41,12.05ZM-591.07,746.09c-5.36,6.32-26.15,13.32-34.3,12.71-3.04-.23-6.28-1.48-8.55-3.5-3.07-2.74-13.12-20.93-13.79-24.91-1.31-7.67,3.3-8.79,9.87-9.5,9.47-1.02,37.79-1.05,46,2.48,8.22,3.54,5.5,17.15.77,22.72Z"/>
  <path class="st0" d="M-318.5,761.61c-5.88-5.18-13.93-4.56-21.09-6.19-21.02-4.78-41.7-18.84-55.73-35.01-7.2-8.29-10.42-13.17-3.42-23.13,13.36-13.14,24.18-32.33,37.37-45.12,5.5-5.34,8.19-4.28,13.69-7.25,10.1-5.44,7.69-22.18-4.21-23.77-13.57-1.81-15.39,12.19-21.86,20.55-9.48,12.25-25.74,30.08-37.01,40.73-4.76,4.49-9.9,9.54-17.08,8.32-8.11-1.38-34.52-22.91-41.72-29.35-9.83-8.79-16.27-17.77-24.75-27.28-9.34-10.47-25.56-15.22-33.52-.55-9.45,17.42,10.48,24.2,21.42,31.05,10.79,6.75,22.32,14.43,32.36,22.21,11.66,9.03,28.76,19.91,17.17,36.1-7.99,11.17-21.8,26.33-31.39,36.51-14.31,15.18-19.09,12.37-37.8,16.14-19.65,3.96-19.69,31.08-.28,32.7,8.66.72,16.65-5.9,24.2-9.42,41.35-19.3,100.81-33.25,145.25-17.88,10,3.46,19.51,12.1,30.16,9.9,12.57-2.6,18.17-20.51,8.24-29.25ZM-403.88,764.48c-12.05,1.22-25.23,1.25-37.43,1.92-5.64.31-13.47,2.21-18.71.29-5.53-2.03-6-6.06-3.33-10.91,2.41-4.38,24.61-25.86,29.11-28.63.91-.56,2.89-1.66,3.84-1.86,3.72-.77,5.56.22,8.62,1.88,6.87,3.72,27.61,18.49,31.03,24.81,5.44,10.04-5.81,11.75-13.15,12.5Z"/>
  <path class="st0" d="M-567.6,846.35c-2.62-.58-6.98.42-9.84,0v15.86c6.36.27,14.39.73,15.1-7.48.26-3.06-2.12-7.69-5.26-8.38ZM-574.26,859.68v-10.79c12.11-2.42,12.1,13.06,0,10.79Z"/>
  <path class="st0" d="M-480.56,848.47c-7.13-7.48-19.75,1.91-13.11,10.89,6.68,9.04,21.08-2.53,13.11-10.89ZM-486.52,860.18c-6.96.68-8.03-10.49-1.61-11.81,7.39-1.52,9.22,11.07,1.61,11.81Z"/>
  <g>
    <path class="st0" d="M951.69,408.09c-17.91,15.89-43.94-5.53-31.28-25.39,16.53-25.93,54.16,5.09,31.28,25.39Z"/>
    <path class="st0" d="M595.58,308.74c-3.98-1.97-9.51-5.18-13.28-7.57-6.12-3.87-21.18-17.52-26.66-18.68-9.04-1.9-15.87,4.21-13.42,13.42,1.54,5.8,11.5,12,15.48,16.26,4.69,5.03,19.26,21.63,19.53,27.71.41,9.31-10.44,11.15-17.25,12.72-57.22,13.21-53.02-10.23-63.94-54.04-9.32-37.42-22.17-73.17-26.66-112.09-2.52-21.83-.72-22.58,7.77-40.94,18.48-39.96-43.3-51.37-43.32-12.43,0,10.36,5.22,20.66,7.76,30.38,7.59,29.06,11.33,62.02,14.05,92.05,1.12,12.36,3.11,28.83-.05,40.75-4.99,18.83-34.83,16.81-50.32,15.96-17.12-.94-29.84-2.07-37.12-19.11-15.28-35.75-22.49-78.2-34.49-115.15-4.08-12.55-11.38-22.3-26.24-19.9-15.03,2.43-22.89,32.31-28.75,44.71-16.27,34.41-36.41,70.37-57.71,101.9-11.09,16.42-16.71,27.3-36.51,34.23-6.92,2.42-14.33,3.58-21.3,5.91-26.95,9.01-56.18,22.83-84.43,26.21-6.17.74-13.71.26-19.83,1.03-24.23,3.03-23.95,37.33,2.72,34.45,7.95-.86,28.8-14.23,37.93-18.29,9.16-4.09,19.36-7.95,28.94-10.97,10.55-3.32,38.91-14.4,32.18,7.7-2.37,7.77-32.91,50.32-39.68,58.27-9.26,10.88-27.45,19.76-19.83,37.11.57,1.31,2.86,4.76,3.85,5.68,3.86,3.58,9.49,5.19,14.68,4.88,18.97-1.12,19.35-22.7,26.9-35.67,20-34.36,50.39-65.62,72.82-98.58,21.43-22.88,99.98-15.25,125.63-1.37,21.57,11.68,22.17,40.02,29.48,60.3,11.8,32.76,43.48,11.82,64.58,3.86,23.83-8.99,48.32-14.63,72.79-21.53,18.99-5.35,36.31-11.9,56.04-15.6,24.13-4.53,67.42-.86,70.93-33.36,3.04-28.21-24.58-30.95-43.24-40.2ZM320.03,313.1c-9.61.87-28.64,1.64-37.67-.39-15.54-3.49-15.9-12.13-9.49-25.01,2.89-5.81,19.6-33.43,23.59-36.26.96-.68,1.7-1.35,2.92-1.62,4.91-1.11,7.2.47,10.08,4.05,4.86,6.02,18.25,34.3,21.17,42.31,3.97,10.86.89,15.88-10.6,16.92ZM462.85,364.34c-6.92,9.11-33.64,19.23-44.84,18.61-13.33-.74-20.18-13.49-25.76-24.14-7.18-13.71-14.51-26.79,6.96-29.09,11.52-1.24,53.03-1.46,62.07,3.59,10.52,5.88,7.89,22.71,1.57,31.03Z"/>
    <path class="st0" d="M890.37,392.5c-10.09-10.22-34.62-10.44-48.83-14.65-24.71-7.34-50.76-23.53-69.11-41.53-11.02-10.81-23.1-23.64-15.59-40.09,13.87-18.66,26.1-40.36,40.24-58.61,9.15-11.81,13.06-9.1,23.19-15.8,8.89-5.88,10.4-20.78,2.64-28.02-8.53-7.96-22.24-5.42-28.7,3.77-1.9,2.7-2.71,6.46-4.37,9.23-4.26,7.1-9.64,11.68-14.66,17.99-12.86,16.18-29.11,41.15-43.08,54.86-13.13,12.89-23.68,4.1-35.74-4.2-19.86-13.66-43.87-33.72-59.98-51.57-12.44-13.79-21.98-34.59-44-33.15-15.69,1.02-25.77,17.1-21.04,31.99,4.38,13.81,28.27,23.12,40.13,30.61,15.44,9.74,62.22,42.77,69.39,57.58,4.06,8.4,1.35,16.42-3.67,23.58-10.24,14.62-28,34.18-40.32,47.64-9.9,10.81-18.15,19.44-32.71,23.52-15.34,4.29-38.37,1.17-45.77,18.62-8.31,19.6,7.71,37.8,28.14,32.67,6.52-1.64,9.14-4.6,14.49-7.28,71.66-35.91,161.71-57.98,239.14-25.99,14.48,5.98,28.2,17.69,44.43,9.39,14.21-7.27,17.01-29.16,5.77-40.55ZM764.63,392.89c-27.41,4.08-58.06,1.31-85.77,5.34-24.27-5.16-2.24-23.23,6.21-31.85,6.03-6.16,12.79-13.77,19.35-19.19,6.03-4.98,11.12-8.42,19.26-6.54,9.78,2.26,41.89,26.09,48.24,34.29,7.11,9.18,4.23,16.25-7.27,17.96Z"/>
  </g>
</svg>